<?xml version="1.0" encoding="UTF-8" standalone="no"?>
<svg xmlns:dc="http://purl.org/dc/elements/1.1/" 
  xmlns:cc="http://creativecommons.org/ns#" 
  xmlns:rdf="http://www.w3.org/1999/02/22-rdf-syntax-ns#" 
  xmlns:svg="http://www.w3.org/2000/svg" 
  xmlns="http://www.w3.org/2000/svg" viewBox="0 0 1333.3333 1066.6667" height="450" width="1333.3333" xml:space="preserve" id="svg2" version="1.1">
  <defs id="defs6">
    <clipPath id="clipPath58" clipPathUnits="userSpaceOnUse">
      <path id="path56" d="m 1695.92,5839.8 v 143.33 l 51.86,-71.66 -51.86,-71.67" />
    </clipPath>
  </defs>
  <g transform="matrix(1.3333333,0,0,-1.3333333,0,1066.6667)" id="g10">
    <g transform="scale(0.1)" id="g12">
      <path id="path14" style="fill:#ffffff;fill-opacity:1;fill-rule:nonzero;stroke:none" d="M 0,0 H 10000 V 8000 H 0 Z" />
      <path id="path16" style="fill:#f7f7f7;fill-opacity:1;fill-rule:nonzero;stroke:none" d="m 4569.99,1889.7 c -271.09,-1 -542.18,-9.07 -812.79,-46.35 -102.04,-14.06 -201.93,-44.98 -304.2,-57.44 -204.27,-24.91 -404.88,-71.38 -609.88,-92.82 -165.08,-17.26 -330.85,-27.44 -495.45,-49.34 -154.33,-20.53 -325.17,-15.8 -478.3,18.12 -113.37,25.11 -227.26,39.25 -338.72,79.59 -124.69,45.12 -260.15,77.38 -390.06,76.22 -185.258,-1.65 -365.668,-1.85 -542.957,-81.52 -62.235,-27.97 -138.418,-73.94 -185.68,-132.63 C 303.77,1469.17 289.125,1133.92 397.145,994.57 579.086,760.039 967.402,668.012 1222.43,663.672 c 279.45,-4.762 550.94,20.93 830.81,36.039 260.05,14.039 519.46,34.008 779.95,33.309 532.02,-1.438 1064.1,0 1595.16,44.019 498.94,41.352 999.14,27.152 1499.17,27.152 512.77,0 1022.07,-4.992 1531.13,-89.39 221.81,-36.781 447.78,-49.649 670.7,-75.422 199.64,-23.07 391.49,0.461 590.34,21.781 166.98,17.91 332.85,71.031 484.54,160.809 120.08,71.07 334.14,291.871 370.96,461.511 103.23,475.59 -1454.85,464.16 -1694.08,463.09 -267.61,-1.2 -537.36,-12.1 -804.77,0.53 -112.48,5.32 -223.31,32.55 -333.09,62.39 -109.35,29.72 -219.52,22.16 -330.42,34.65 -462.43,52.09 -925.9,44.47 -1389.8,44.47 -150.96,0.01 -302,1.64 -453.04,1.09" />
      <path id="path18" style="fill:#587bc9;fill-opacity:1;fill-rule:nonzero;stroke:none" d="m 8811.57,3371.41 27.26,-632.27 -79.91,-1075.07 -119.58,-8.49 -145.28,976.41 -200.98,826.24 518.49,-86.82" />
      <path id="path20" style="fill:#556362;fill-opacity:1;fill-rule:nonzero;stroke:none" d="m 8643.62,1605.2 133.89,-55.46 60.07,69.24 -69.25,60.07 -129.31,-9.19 4.6,-64.66" />
      <path id="path22" style="fill:#587bc9;fill-opacity:1;fill-rule:nonzero;stroke:none" d="m 7965.11,3595.14 -26.24,-477.92 77.86,-1421.04 119.73,-5.98 179.44,932.01 158.26,1022.08 -509.05,-49.15" />
      <path id="path24" style="fill:#556362;fill-opacity:1;fill-rule:nonzero;stroke:none" d="m 8133.24,1639.75 -132.71,-58.27 -61.49,67.97 67.96,61.5 129.48,-6.47 -3.24,-64.73" />
      <path id="path26" style="fill:#3b455a;fill-opacity:1;fill-rule:nonzero;stroke:none" d="m 8842.9,4963.08 -361.69,101.84 c 0,0 -208.64,12.8 -430.09,-450.34 -123.21,-257.66 -218.98,-680.27 -279.72,-1004.54 0.85,-47.86 16.99,-259.64 236.55,-261.35 377.04,-2.95 582.41,23.17 737.22,-33.49 131.14,-52.64 151.37,136.76 160.63,282.34 l 20.69,451.81 -83.59,913.73" />
      <path id="path28" style="fill:#a0675c;fill-opacity:1;fill-rule:nonzero;stroke:none" d="m 8849.4,5433.66 c -89.39,36.19 -181.84,70.7 -277.91,68.04 -21.04,-0.58 -44.09,-3.97 -58.1,-19.67 -5.43,-6.09 -9.03,-13.56 -12.43,-20.97 -38.22,-83.22 -89.86,-207.42 -46.06,-297.47 8.35,-17.17 20.99,-31.83 35.11,-44.37 18.89,-16.77 40.74,-29.71 64.12,-38.58 -8.67,-20.83 -19.23,-40.87 -31.51,-59.8 15.82,-35.64 114.33,-56.27 137.87,-28.65 5.52,26.41 11.05,52.82 16.58,79.24 12.9,2.83 25.56,6.79 37.73,12.14 47.1,20.74 82.19,58.36 106.44,103 26.39,48.61 59.54,93.44 84.58,143.3 9.12,18.16 17.46,39.24 10.31,58.26 -7.61,20.26 -29.7,30.46 -49.74,38.62 -5.65,2.3 -11.31,4.61 -16.99,6.91" />
      <path id="path30" style="fill:#3b455a;fill-opacity:1;fill-rule:nonzero;stroke:none" d="m 8531.92,5436.13 c 50.88,21.75 121.88,22.8 164.5,12.36 128.86,-31.54 160.43,-135.44 147.09,-256.56 43.68,39.59 120.85,85.63 134.88,143.72 11.48,47.54 15.93,114.28 -3.99,160.39 -18.64,43.15 -79.51,75.42 -114.05,104.45 -32.56,27.35 -65.11,54.71 -97.67,82.07 -6.77,5.69 -13.74,11.49 -22.08,14.44 -9.86,3.48 -20.66,2.64 -31.08,1.75 -89.19,-7.62 -178.37,-15.23 -267.56,-22.85 -17.13,-1.46 -36.88,-4.49 -45.61,-19.31 -5.31,-9.01 -4.97,-20.14 -4.47,-30.59 2.19,-46 13.14,-94.49 10.14,-140.2 0.79,-26.99 -6.29,-163.43 42.55,-155.82 17.33,19.9 23.99,46.89 38.59,68.87 10.78,16.24 28.12,28.47 48.76,37.28" />
      <path id="path32" style="fill:#3b455a;fill-opacity:1;fill-rule:nonzero;stroke:none" d="m 8481.21,5064.92 -143.17,-18.39 -585.45,-436.74 -58.67,-166.65 171.26,-432.74 88.55,133 -51.52,307.1 178.87,85.41 294.29,443.41 105.84,85.6" />
      <path id="path34" style="fill:#3b455a;fill-opacity:1;fill-rule:nonzero;stroke:none" d="m 8759.43,4944.8 299.53,230.68 65.88,751.49 119.53,30.03 24.02,-777.7 -78.06,-179.59 -350.18,-343.55 -80.72,288.64" />
      <path id="path36" style="fill:#a0675c;fill-opacity:1;fill-rule:nonzero;stroke:none" d="m 9218.79,5950.57 11.49,67.87 -60.67,116.67 -61.6,-38.69 19.49,-97.84 -27.52,-27.89 24.86,-43.72 93.95,23.6" />
      <path id="path38" style="fill:#e3e3e3;fill-opacity:1;fill-rule:nonzero;stroke:none" d="M 1210.01,1592.18 H 8252.59 V 6034.84 H 1210.01 Z" />
      <path id="path40" style="fill:#3b455a;fill-opacity:1;fill-rule:nonzero;stroke:none" d="M 8252.59,6114.57 H 1210.01 v 266.56 h 7042.58 v -266.56" />
      <path id="path42" style="fill:#7db5db;fill-opacity:1;fill-rule:nonzero;stroke:none" d="m 1210.01,5764.66 h 7042.58 v 349.91 H 1210.01 Z" />
      <path id="path44" style="fill:#ffffff;fill-opacity:1;fill-rule:nonzero;stroke:none" d="M 7928.49,5836.77 H 1939.21 v 149.39 h 5989.28 v -149.39" />
      <path id="path46" style="fill:#f7f7f7;fill-opacity:1;fill-rule:nonzero;stroke:none" d="m 1504.8,6258.91 c 0,-24.22 -19.95,-43.86 -44.57,-43.86 -24.61,0 -44.57,19.64 -44.57,43.86 0,24.21 19.96,43.85 44.57,43.85 24.62,0 44.57,-19.64 44.57,-43.85" />
      <path id="path48" style="fill:#d7e8f4;fill-opacity:1;fill-rule:nonzero;stroke:none" d="m 1635.34,6258.91 c 0,-24.22 -19.96,-43.86 -44.58,-43.86 -24.61,0 -44.57,19.64 -44.57,43.86 0,24.21 19.96,43.85 44.57,43.85 24.62,0 44.58,-19.64 44.58,-43.85" />
      <path id="path50" style="fill:#7db5db;fill-opacity:1;fill-rule:nonzero;stroke:none" d="m 1765.87,6258.91 c 0,-24.22 -19.96,-43.86 -44.58,-43.86 -24.61,0 -44.57,19.64 -44.57,43.86 0,24.21 19.96,43.85 44.57,43.85 24.62,0 44.58,-19.64 44.58,-43.85" />
      <g id="g52">
        <g clip-path="url(#clipPath58)" id="g54">
          <path id="path60" style="fill:#acd0e8;fill-opacity:1;fill-rule:nonzero;stroke:none" d="m 1695.92,5839.8 h 51.8594 v 143.328 H 1695.92 Z" />
        </g>
      </g>
      <path id="path62" style="fill:#acd0e8;fill-opacity:1;fill-rule:nonzero;stroke:none" d="m 1485.61,5839.8 -51.86,71.67 51.86,71.66 V 5839.8" />
      <path id="path64" style="fill:#3b455a;fill-opacity:1;fill-rule:nonzero;stroke:none" d="m 1052.38,1148.44 -8.07,-74.63 141.17,-90.759 82.69,66.549 -66.54,82.69 -141.18,90.77 -8.07,-74.62" />
      <path id="path66" style="fill:#3b455a;fill-opacity:1;fill-rule:nonzero;stroke:none" d="m 1391.1,1166.56 -8.07,-74.62 141.17,-90.77 82.69,66.55 -66.55,82.7 -141.17,90.76 -8.07,-74.62" />
      <path id="path68" style="fill:#40495f;fill-opacity:1;fill-rule:nonzero;stroke:none" d="m 787.066,2591.58 150.473,-668.43 92.491,-787.04 172.75,16.15 70.21,1910.69 -462.545,-8.4 -23.379,-462.97" />
      <path id="path70" style="fill:#40495f;fill-opacity:1;fill-rule:nonzero;stroke:none" d="m 1672.71,2632.46 19.42,-648.86 -129.01,-831.34 -180.09,18.82 -24.73,859.23 -128.43,588.9 -43.12,385.48 385.12,45.43 100.84,-417.66" />
      <path id="path72" style="fill:#bcbec0;fill-opacity:1;fill-rule:nonzero;stroke:none" d="m 1368.05,4378.05 -414.905,9.9 -240.563,-447.39 85.504,-419.05 15.227,-501.48 591.847,-8.08 194.74,31.62 -51.71,535.82 29.65,715.77 -209.79,82.89" />
      <path id="path74" style="fill:#eac2a7;fill-opacity:1;fill-rule:nonzero;stroke:none" d="m 913.141,3311.92 -2.25,-69.98 123.519,-44.96 71.2,53.94 0.04,81.46 -68.73,3.84 -2.15,17.92 -22.51,14.47 -99.119,-56.69" />
      <path id="path76" style="fill:#bcbec0;fill-opacity:1;fill-rule:nonzero;stroke:none" d="m 939.387,4357.1 -459.508,-528.61 -22.445,-231.55 453.242,-357.8 81.316,117.67 -293.129,312.97 283.965,278 -43.441,409.32" />
      <path id="path78" style="fill:#bcbec0;fill-opacity:1;fill-rule:nonzero;stroke:none" d="m 1383.03,4106.96 216.11,-432.04 233.02,-46.31 466.58,71.34 -57.25,145.95 h -427.84 l -241.59,449.26 -189.03,-188.2" />
      <path id="path80" style="fill:#eac2a7;fill-opacity:1;fill-rule:nonzero;stroke:none" d="m 1342.07,4725.68 c -62.55,181.84 -302.62,113.7 -352.109,-48.22 -32.285,-105.62 49.289,-242.69 158.729,-273.03 0.48,-4.15 0.85,-8.04 0.86,-11.33 0.07,-16.96 2.16,-33.67 4.68,-50.61 0.94,-6.32 96.71,12.09 107.39,14.19 3.74,0.73 7.91,1.75 9.92,4.88 3.87,6.02 -2.42,23.73 -3.12,30.41 -0.83,7.89 -1.66,15.78 -2.48,23.67 53.98,26.35 88.05,82.47 97.56,139.6 9.56,57.41 -2.63,115.79 -21.43,170.44" />
      <path id="path82" style="fill:#ffffff;fill-opacity:1;fill-rule:nonzero;stroke:none" d="m 1075.88,4380.42 128.71,-181.92 60.52,4.96 100.85,184.49 -290.08,-7.53" />
      <path id="path84" style="fill:#3b455a;fill-opacity:1;fill-rule:nonzero;stroke:none" d="m 1625.62,4854.93 c 7.17,12.34 14.93,24.26 23.65,35.47 18.9,24.27 42.36,45.23 57.42,72.06 15.06,26.83 19.82,62.88 0.62,86.92 -12.39,15.51 -32.14,23 -51.29,28.21 -63.12,17.21 -130.87,17.1 -193.93,-0.31 -60.07,-16.59 -113.59,-43.12 -174.82,-21.65 -57.53,20.18 -98.6,10.66 -157.86,-11.83 -64.12,-24.35 -150.711,-31.53 -208.515,-65.24 -24.137,-14.08 -43.196,-35.7 -57.903,-59.45 -50.972,-82.31 -49.008,-194.35 4.817,-274.82 12.074,-18.05 26.421,-34.49 41.464,-50.16 31.133,-32.43 68.399,-72.51 110.557,-83.91 0.25,37.52 -36.283,155.06 -8.11,186.37 44.72,49.69 148.38,34.75 205.32,23.89 62.1,-11.85 118.09,-54.54 179.59,-62.66 44.25,-5.84 100.11,16.92 137.17,40.48 45.72,29.09 65.62,111.61 91.82,156.63" />
      <path id="path86" style="fill:#3b455a;fill-opacity:1;fill-rule:nonzero;stroke:none" d="m 1272.11,3105.12 -335.59,311.19 947.23,301.13 365.66,-314.17 -977.3,-298.15" />
      <path id="path88" style="fill:#d7e8f4;fill-opacity:1;fill-rule:nonzero;stroke:none" d="m 1272.11,3105.12 977.3,298.15 v 777.59 l -977.3,-298.15 v -777.59" />
      <path id="path90" style="fill:#40495f;fill-opacity:1;fill-rule:nonzero;stroke:none" d="m 3636.84,4364.42 258.17,-321.97 340.06,196.68 130.4,-105.72 -268.41,-340.54 -217.54,-175.54 -312.3,402.3 69.62,344.79" />
      <path id="path92" style="fill:#5a5751;fill-opacity:1;fill-rule:nonzero;stroke:none" d="m 3908.12,3322.45 11.13,-963.24 -102.65,-1240 h -139.57 l -167.02,1144.01 -191,1145.97 589.11,-86.74" />
      <path id="path94" style="fill:#3b455a;fill-opacity:1;fill-rule:nonzero;stroke:none" d="m 3677.83,1060.35 150.93,-75.459 75.47,75.459 -75.47,75.47 h -150.93 v -75.47" />
      <path id="path96" style="fill:#5a5751;fill-opacity:1;fill-rule:nonzero;stroke:none" d="m 2951.17,3322.45 -2.74,-557.27 94.13,-1645.97 h 139.58 l 233.49,1092.26 124.64,1197.72 -589.1,-86.74" />
      <path id="path98" style="fill:#3b455a;fill-opacity:1;fill-rule:nonzero;stroke:none" d="m 3181.33,1060.35 -150.93,-75.459 -75.47,75.459 75.47,75.47 h 150.93 v -75.47" />
      <path id="path100" style="fill:#40495f;fill-opacity:1;fill-rule:nonzero;stroke:none" d="m 2806.02,2986.91 c -2.99,-88.42 -1.07,-206.69 36.15,-211.11 6.97,-0.82 13.7,2.26 19.83,5.24 64.73,31.45 110.88,75.91 174.69,106.29 66.88,31.84 142.89,48.5 217.17,60.01 110.79,17.69 223.41,28.32 334.92,29.31 95.83,0.85 195.5,-42.87 286.09,-66.91 34.88,-9.25 63.25,-34.67 92.21,-54.6 42.8,-29.44 61.56,-41.1 55.72,19.05 -9.52,98.15 -19.41,196.28 -31.48,294.16 -24.09,195.21 -56.87,389.97 -112.34,578.95 -21.19,72.19 -45.64,143.38 -70.07,214.55 -29.76,86.65 -59.52,173.31 -89.28,259.97 -36.98,107.7 -99.41,183.57 -208.7,221.25 -94.46,32.56 -211.79,41.46 -303.66,-4.11 -102.13,-50.67 -150.7,-223.27 -200.32,-315.5 -43.47,-80.83 -98.28,-301.29 -114.55,-388.42 -19.59,-104.88 -37.69,-209.27 -51.93,-313.38 -15.78,-115.31 -26.9,-230.28 -30.12,-344.57 -0.36,-12.64 -2.9,-47.97 -4.33,-90.18" />
      <path id="path102" style="fill:#ffffff;fill-opacity:1;fill-rule:nonzero;stroke:none" d="m 3310.52,4423.73 188.62,-1.8 c 0,0 202.39,-707.32 209.83,-829.22 7.3,-119.68 58.46,-604.93 58.46,-604.93 0,0 -208.89,-4.92 -449.57,-34.24 -235.29,-50.36 -255.07,-20.58 -255.07,-20.58 0,0 126.99,510.02 131.2,656.55 4.31,149.87 23.5,644.88 23.5,644.88 l 93.03,189.34" />
      <path id="path104" style="fill:#eac2a7;fill-opacity:1;fill-rule:nonzero;stroke:none" d="m 3424.9,4420.06 c -2.21,-1.93 -4.77,-3.44 -7.71,-4.41 -5.86,-1.93 -12.22,-1.23 -18.35,-0.5 -24.95,2.95 -49.9,5.9 -74.85,8.85 8.23,76.41 -36.44,93.69 -79.96,142.83 -44.11,49.82 -30.54,116.99 -28.06,177.95 0.71,16.98 1.53,34.48 8.72,49.88 12.6,27.03 41.93,41.96 70.4,50.81 72.67,22.58 155.79,17.02 219.78,-24.17 17.03,-10.97 32.93,-24.74 42.16,-42.77 14.22,-27.8 10.61,-60.98 6.64,-91.95 -6.1,-47.61 -20.18,-94.37 -47.11,-134.5 -25.08,-37.38 -72.9,-55.29 -78.39,-100.15 -1.42,-11.59 -4.93,-24.63 -13.27,-31.87" />
      <path id="path106" style="fill:#3b455a;fill-opacity:1;fill-rule:nonzero;stroke:none" d="m 3561.57,4741.92 c -4.25,-19.21 -13.2,-38.63 -8.53,-57.73 30.5,10.35 50.42,41.55 61.22,73.26 4.9,14.37 8.46,29.59 7.22,44.8 -1.23,15.2 -7.83,30.48 -19.83,39.08 -16.76,11.99 -46.82,7.28 -51.61,-14.46 -4.83,-21.91 17.91,-56.06 11.53,-84.95" />
      <path id="path108" style="fill:#3b455a;fill-opacity:1;fill-rule:nonzero;stroke:none" d="m 3723.48,4910.57 c -0.72,23.01 -9.49,43.57 -30.05,57.45 -17.72,11.97 -38.15,21.9 -48.92,40.93 -8.35,14.77 -9.58,33.05 -17.86,47.86 -14.99,26.83 -47.54,34.72 -75.86,43.81 -70.82,22.75 -108.96,49.01 -183.98,19.89 -53.33,-20.7 -122.25,-23.48 -171.76,-53.68 -20.67,-12.61 -38.26,-32.87 -52.69,-55.44 -50.02,-78.19 -62.02,-188.13 -29.45,-269.68 7.3,-18.26 16.56,-35.05 26.46,-51.12 19.8,-32.14 41.02,-71.68 76.08,-87.42 2.2,15.15 13.48,23.5 17.01,38.39 2.54,10.71 1.69,21.94 1.13,32.96 -2.15,42.88 -15.3,110.68 27.52,131.94 54.15,26.89 155.73,2.64 207.88,-20.12 46.14,-20.15 124.02,-46.35 173.22,-24.77 45.68,20.02 82.81,99.86 81.27,149" />
      <path id="path110" style="fill:#587bc9;fill-opacity:1;fill-rule:nonzero;stroke:none" d="m 2666.58,2548.3 c 0,897.09 727.23,1624.32 1624.32,1624.32 897.08,0 1624.31,-727.23 1624.31,-1624.32 0,-897.08 -727.23,-1624.312 -1624.31,-1624.312 -897.09,0 -1624.32,727.232 -1624.32,1624.312" />
      <path id="path112" style="fill:#ffffff;fill-opacity:1;fill-rule:nonzero;stroke:none" d="m 5104.67,1734.53 c -159.97,-159.97 -358.76,-266.96 -575.11,-312.35 55.05,53.27 118.67,121.31 182.45,203.44 100.35,129.21 180.37,266.81 237.86,408.99 14.58,36.07 27.64,72.46 39.31,109.1 h 379.67 c -56.91,-151.84 -146.1,-291.09 -264.18,-409.18 z m -1627.54,0 c -118.09,118.09 -207.28,257.34 -264.18,409.18 h 396.7 c 11.67,-36.64 24.72,-73.03 39.31,-109.1 57.48,-142.18 137.5,-279.78 237.85,-408.99 65.54,-84.39 130.88,-153.85 186.94,-207.76 -224.68,42.68 -431.36,151.41 -596.62,316.67 z m -288.44,1146.61 h 382.27 c -20.41,-95.46 -30.8,-193.5 -30.8,-293.39 0,-106.15 11.62,-211.55 34.65,-315.26 h -401.63 c -21.84,89.19 -33.13,181.63 -33.13,275.81 0,114.42 16.61,226.28 48.64,332.84 z m 288.44,480.93 c 158.51,158.52 355.15,265.02 569.21,311.12 -49.02,-43.47 -103.26,-96.86 -157.61,-160.4 -100.99,-118.08 -181.51,-247 -239.35,-383.19 -16.68,-39.29 -31.38,-79.22 -44.26,-119.68 h -369.05 c 56.81,129.72 137.91,249.01 241.06,352.15 z m 1627.54,0 c 103.14,-103.14 184.24,-222.43 241.05,-352.15 H 4993.7 c -12.88,40.46 -27.58,80.39 -44.26,119.68 -57.84,136.19 -138.36,265.11 -239.35,383.19 -52.22,61.06 -104.34,112.71 -151.83,155.23 205.21,-48.6 393.53,-153.08 546.41,-305.95 z m -76.8,-480.93 h 365.23 c 32.03,-106.56 48.64,-218.42 48.64,-332.84 0,-94.18 -11.29,-186.62 -33.13,-275.81 h -384.6 c 23.04,103.71 34.65,209.11 34.65,315.26 0,99.89 -10.39,197.93 -30.79,293.39 z m -672.58,-608.65 v 608.65 h 540.58 c 22.56,-95.1 34.01,-193.19 34.01,-293.39 0,-106.22 -12.8,-211.68 -38.13,-315.26 z m 0,-834.19 v 705.41 h 498.13 c -6.87,-19.57 -14.18,-39.07 -21.99,-58.45 -52.6,-130.78 -126.13,-257.73 -218.55,-377.32 -97.4,-126.05 -195.75,-217.49 -257.59,-269.64 z m -128.78,705.41 v -690.97 c -61.26,53.15 -149.61,138.07 -237.99,251.87 -93.06,119.83 -167.14,247.1 -220.18,378.27 -8.15,20.17 -15.8,40.46 -22.96,60.83 z m 0,1510.05 v -643.84 h -485.53 c 7.98,22.44 16.53,44.68 25.82,66.69 52.18,123.67 125.12,241.07 216.78,348.94 90.2,106.14 181.24,182.28 242.93,228.21 z m 385.71,-224.68 c 92.43,-108.05 166,-225.76 218.69,-349.82 9.71,-22.87 18.62,-46.01 26.92,-69.34 h -502.54 v 656.44 c 60.3,-43.29 158.55,-122.25 256.93,-237.28 z m -943.27,-841.33 c 0,100.2 11.46,198.29 34,293.39 h 523.56 v -608.65 h -519.42 c -25.33,103.58 -38.14,209.03 -38.14,315.26 z m 1800.98,458.66 c -64.45,152.38 -156.7,289.23 -274.2,406.72 -117.5,117.5 -254.35,209.76 -406.73,274.21 -157.8,66.75 -325.38,100.59 -498.1,100.59 -172.72,0 -340.31,-33.84 -498.11,-100.59 -152.38,-64.45 -289.23,-156.71 -406.73,-274.21 -117.49,-117.49 -209.75,-254.34 -274.2,-406.72 -66.75,-157.8 -100.59,-325.39 -100.59,-498.11 0,-172.72 33.84,-340.3 100.59,-498.11 64.45,-152.38 156.71,-289.22 274.2,-406.72 117.5,-117.5 254.35,-209.75 406.73,-274.21 157.8,-66.74 325.39,-100.58 498.11,-100.58 172.72,0 340.3,33.84 498.1,100.58 152.38,64.46 289.23,156.71 406.73,274.21 117.5,117.5 209.75,254.34 274.2,406.72 66.75,157.81 100.59,325.39 100.59,498.11 0,172.72 -33.84,340.31 -100.59,498.11" />
      <path id="path114" style="fill:#eac2a7;fill-opacity:1;fill-rule:nonzero;stroke:none" d="m 4265.01,4276.32 168.85,24.8 116.71,-129.25 -70.92,-63.28 -115.43,53.61 -55.9,-26.51 -96.04,53.94 52.73,86.69" />
      <path id="path116" style="fill:#323643;fill-opacity:1;fill-rule:nonzero;stroke:none" d="m 7124.8,1215.68 c 12.91,14.21 27.98,21.96 44.99,19.28 16.35,-2.57 31.05,-13.65 37.79,-28.47 4.59,-10.1 5.56,-21.37 6.48,-32.39 4.71,-57.05 4.28,-192.479 -71.7,-211.991 -31.94,-8.179 -58.36,14.5 -66.88,43.181 -12.85,43.2 6.17,162.88 49.32,210.39" />
      <path id="path118" style="fill:#eac2a7;fill-opacity:1;fill-rule:nonzero;stroke:none" d="m 7097.78,2076.25 3.98,-347.94 c -4.63,-154.56 19.5,-309.97 14.88,-464.53 -1.07,-35.54 -10.33,-73.03 -1.37,-108.26 8.75,-34.46 36.75,-40.55 65.49,-23.1 38.51,23.38 32.3,77.97 38.72,117.8 17.61,109.45 38.28,218.39 56.67,327.7 9.03,53.59 -9.57,128.7 -5.52,182.93 l 56.21,291.61 -229.06,23.79" />
      <path id="path120" style="fill:#40495f;fill-opacity:1;fill-rule:nonzero;stroke:none" d="m 7495.33,2638.46 -151.44,-672.7 -32.17,-635.26 -240.13,5.39 -65.29,1776.94 465.5,-8.45 23.53,-465.92" />
      <path id="path122" style="fill:#323643;fill-opacity:1;fill-rule:nonzero;stroke:none" d="m 6781.34,1228.32 c 13.47,13.46 28.81,20.33 45.66,16.65 16.18,-3.54 30.36,-15.49 36.44,-30.72 4.16,-10.38 4.64,-21.72 5.08,-32.8 2.26,-57.37 -3.96,-192.891 -80.52,-207.93 -32.18,-6.309 -57.54,17.949 -64.81,47.15 -10.96,44 13.11,162.65 58.15,207.65" />
      <path id="path124" style="fill:#eac2a7;fill-opacity:1;fill-rule:nonzero;stroke:none" d="m 6907.91,2027.41 -20.38,-347.38 c -1.66,-96.54 -14.52,-192.33 -24.52,-288.22 -9.28,-89.07 5.17,-181.84 -41.38,-262.85 -14.6,-25.4 -44.11,-42.31 -64.72,-11.46 -15.89,23.79 -6.45,63.47 -9.5,90.45 -12.44,110.14 -27.95,219.92 -41.18,329.97 -6.48,53.96 15.63,128.12 14.15,182.48 l -42.4,293.9 229.93,13.11" />
      <path id="path126" style="fill:#40495f;fill-opacity:1;fill-rule:nonzero;stroke:none" d="m 6604.04,2679.6 -19.55,-653 102.48,-660.35 244.26,-7.31 -10.78,714.66 129.25,592.66 43.39,387.95 -387.57,45.71 -101.48,-420.32" />
      <path id="path128" style="fill:#7db5db;fill-opacity:1;fill-rule:nonzero;stroke:none" d="m 6910.64,4436.32 417.55,9.97 242.1,-450.25 -86.05,-421.72 -15.33,-504.68 -595.62,-8.13 -195.98,31.82 52.04,539.24 -29.84,720.33 211.13,83.42" />
      <path id="path130" style="fill:#7db5db;fill-opacity:1;fill-rule:nonzero;stroke:none" d="m 7342.04,4415.24 338.95,-516.27 -50.94,-287.6 -524.96,-363.65 -98.79,86.36 350.96,443.66 -13.61,280.36 -1.61,357.14" />
      <path id="path132" style="fill:#7db5db;fill-opacity:1;fill-rule:nonzero;stroke:none" d="m 6889.75,4163.51 -217.49,-434.8 -234.51,-46.61 -584.3,255.13 100.79,114.32 532.85,-97.53 212.42,398.88 190.24,-189.39" />
      <path id="path134" style="fill:#eac2a7;fill-opacity:1;fill-rule:nonzero;stroke:none" d="m 6936.78,4786.17 c 62.95,183 304.55,114.42 354.36,-48.53 32.49,-106.3 -49.6,-244.23 -159.74,-274.76 -0.49,-4.19 -0.85,-8.1 -0.87,-11.41 -0.07,-17.06 -2.17,-33.88 -4.71,-50.94 -0.94,-6.35 -97.33,12.17 -108.08,14.29 -3.76,0.74 -7.95,1.76 -9.98,4.91 -3.89,6.06 2.44,23.88 3.15,30.6 0.83,7.94 1.66,15.88 2.49,23.82 -54.33,26.52 -88.61,83 -98.18,140.5 -9.62,57.77 2.65,116.52 21.56,171.52" />
      <path id="path136" style="fill:#3b455a;fill-opacity:1;fill-rule:nonzero;stroke:none" d="m 7094.4,4951.54 c 12.96,-13.15 18.05,-31.5 21.79,-49.12 2.23,-10.51 4.14,-21.4 1.89,-31.81 -8.97,-41.55 -50.17,-39.38 -82.04,-52.77 -39.3,-16.51 -73.19,-46.92 -95.19,-81.93 -34.45,-54.83 -18.95,-125.38 -4.98,-185.86 4.92,-21.31 14.84,-52.99 -1.69,-72 -16.8,-19.32 -55.62,-16.34 -75.74,-6.4 -18.37,9.08 -33.47,25.88 -53.66,29.26 -21.36,3.57 -50.23,-5.82 -60.17,13.78 -2.76,5.45 -3.02,12.12 -6.51,17.11 -11.8,16.88 -41.16,-2.88 -57.79,9.01 -10.24,7.32 -10.17,22.92 -6.7,35.26 3.45,12.34 9.28,24.85 6.87,37.4 -2.07,10.79 -9.86,19.32 -14.67,29.13 -9.49,19.39 -6.21,44.64 7.93,61.02 26.31,30.44 77.21,24.66 105.4,53.29 14.68,14.92 20.37,36.44 25.84,56.8 5.48,20.36 12.05,41.83 27.74,55.63 19.39,17.04 47.39,14.14 66.52,34.36 11.24,11.88 18.73,27.34 31.34,37.67 16.63,13.63 49.13,24.11 69.82,31.05 32.8,11.03 69.49,4.01 94,-20.88" />
      <path id="path138" style="fill:#3b455a;fill-opacity:1;fill-rule:nonzero;stroke:none" d="m 7247.23,4659.49 c 1.12,-60.23 -28.8,-125.35 -1.05,-178.38 28,-53.5 97.8,-63.15 157.3,-65.94 9.78,-0.46 135.35,-11.3 135.88,-8.92 9.4,41.95 19.12,84.74 41.05,121.58 21.93,36.84 58.59,67.37 100.58,69.99 -12.12,2.1 -18.22,16.93 -16.82,29.44 1.4,12.5 7.87,23.78 11.61,35.79 9.2,29.53 0.25,63.97 -22.01,84.72 -44.42,41.39 -124.94,24.2 -163.02,71.75 -23.6,29.48 -20.8,72.24 -33.16,108.24 -23.93,69.6 -100.13,84.16 -157.08,115.59 -60.12,33.18 -116.74,51.37 -186.13,39.8 -86.02,-14.33 -149.96,-101.91 -116.78,-184.32 42.54,-105.7 212.66,-96.58 244.51,-203.91 3.42,-11.52 4.89,-23.38 5.12,-35.43" />
      <path id="path140" style="fill:#f7f7f7;fill-opacity:1;fill-rule:nonzero;stroke:none" d="m 7204.67,4438.71 -129.54,-183.08 -60.89,4.99 -101.49,185.67 291.92,-7.58" />
      <path id="path142" style="fill:#ffffff;fill-opacity:1;fill-rule:nonzero;stroke:none" d="m 6222.35,3474.32 c 11.68,0 23.16,-4.62 30.72,-12.37 l 295.79,-303.21 183.69,179.21 -295.2,302.62 c -8.69,8.9 -12.95,20.35 -12,32.23 1.01,12.66 7.87,24.58 18.83,32.71 l 209.31,155.35 -1000.58,400.12 375.26,-1010.24 163.63,209.48 c 7.01,8.96 18.14,14.1 30.55,14.1 z m 325.4,-417.17 c -11.33,0 -21.82,4.35 -29.52,12.25 l -291.66,298.98 -180.29,-230.79 c -7.33,-9.39 -17.78,-14.56 -29.42,-14.56 -17.98,0 -35.67,12.48 -42.06,29.69 l -434.46,1169.6 c -5.71,15.41 -2.23,31.23 9.06,41.9 7.12,8.99 17.44,14.09 28.67,14.09 5.11,0 10.29,-1.05 15.43,-3.1 l 1158.45,-463.25 c 15.65,-6.26 26.19,-19.28 28.21,-34.82 1.99,-15.36 -4.81,-30.46 -18.2,-40.4 l -230.98,-171.42 291.04,-298.34 c 7.53,-7.71 11.94,-18.4 12.12,-29.33 0.18,-11.62 -4.18,-22.36 -12.28,-30.27 l -244.04,-238.09 c -7.91,-7.72 -18.87,-12.14 -30.07,-12.14" />
      <path id="path144" style="fill:#ffffff;fill-opacity:1;fill-rule:nonzero;stroke:none" d="m 6808.95,3320.61 c -81.35,-79.36 -162.69,-158.73 -244.04,-238.09 -4.62,-4.51 -10.92,-6.89 -17.16,-6.89 -5.96,0 -11.89,2.17 -16.3,6.68 -13.29,13.64 -26.6,27.27 -39.89,40.91 -88.85,91.07 -177.7,182.14 -266.53,273.21 -64.44,-82.49 -128.88,-164.98 -193.32,-247.46 -4.11,-5.27 -9.43,-7.45 -14.85,-7.45 -10.37,0 -21.14,7.97 -24.73,17.64 -17.8,47.92 -35.6,95.83 -53.4,143.75 -77.79,209.42 -155.58,418.84 -233.37,628.26 -49.22,132.53 -98.45,265.06 -147.68,397.59 -3.68,9.91 -0.61,17.88 5.4,22.91 3.41,4.87 8.54,8.15 14.99,8.15 2.65,0 5.52,-0.55 8.57,-1.78 47.46,-18.97 94.92,-37.95 142.38,-56.93 207.42,-82.95 414.84,-165.9 622.26,-248.84 131.27,-52.49 262.54,-104.99 393.81,-157.48 19.49,-7.8 23.09,-30.41 5.85,-43.2 -82.66,-61.35 -165.31,-122.69 -247.96,-184.03 6.93,-7.11 13.86,-14.22 20.8,-21.32 95,-97.39 190.01,-194.78 285.01,-292.17 8.81,-9.02 9.44,-24.41 0.16,-33.46 z m 26.31,59.28 -106.55,109.22 -169.71,173.97 213.97,158.81 c 18.85,13.99 28.39,35.53 25.52,57.63 -2.89,22.28 -17.72,40.82 -39.68,49.6 l -393.8,157.48 -345.72,138.25 -276.54,110.59 -71.19,28.47 -71.19,28.46 c -7.34,2.93 -14.84,4.42 -22.3,4.42 -16.53,0 -31.7,-7.24 -42.31,-20.03 -16.07,-15.8 -20.98,-38.69 -12.74,-60.87 l 140.36,-377.87 7.32,-19.72 10.22,-27.5 223.15,-600.76 26.7,-71.88 26.69,-71.87 c 8.99,-24.19 33.97,-41.75 59.4,-41.75 17.2,0 33.24,7.9 43.99,21.67 l 96.66,123.73 70.6,90.38 63.74,-65.33 173.24,-177.59 19.95,-20.45 19.95,-20.46 c 11.22,-11.5 26.4,-17.83 42.76,-17.83 15.98,0 31.65,6.34 42.98,17.39 l 70.46,68.75 173.58,169.35 c 11.61,11.32 18.11,27.28 17.85,43.79 -0.25,15.84 -6.42,30.73 -17.36,41.95" />
      <path id="path146" style="fill:#ffffff;fill-opacity:1;fill-rule:nonzero;stroke:none" d="m 6549.19,3184.88 -108.75,111.48 -134.24,137.6 -19.95,20.45 -19.95,20.45 c -11.13,11.41 -27.15,17.94 -43.95,17.94 -18.14,0 -34.58,-7.72 -45.11,-21.2 l -73.51,-94.1 -69.75,-89.3 -43.14,116.12 -66.17,178.17 -10.89,29.29 -222.48,598.97 -6.54,17.59 190.26,-76.08 79.33,-31.73 311.13,-124.41 311.14,-124.43 39.28,-15.71 -64.8,-48.09 -117.94,-87.54 c -15.24,-11.3 -24.8,-28.1 -26.24,-46.08 -1.38,-17.28 4.73,-33.83 17.19,-46.61 l 134.08,-137.44 148.22,-151.94 z m -98.61,468.6 c -11.5,11.78 -7.62,28.11 4.61,37.18 78.63,58.36 157.26,116.72 235.9,175.08 -33.58,13.43 -67.16,26.85 -100.75,40.29 -207.42,82.94 -414.84,165.89 -622.26,248.84 -115.67,46.25 -231.34,92.51 -347.01,138.76 11.85,-31.92 23.71,-63.84 35.57,-95.76 77.79,-209.42 155.57,-418.84 233.36,-628.26 44.13,-118.78 88.24,-237.55 132.37,-356.33 61.33,78.52 122.67,157.04 184,235.56 3.78,4.83 9.82,6.99 15.98,6.99 6.56,0 13.26,-2.46 17.48,-6.78 13.31,-13.64 26.6,-27.27 39.91,-40.91 89.59,-91.85 179.2,-183.7 268.8,-275.55 70.05,68.35 140.11,136.69 210.16,205.04 -7.7,7.89 -15.41,15.79 -23.11,23.68 -95,97.39 -190.01,194.78 -285.01,292.17" />
      <path id="path148" style="fill:#3b455a;fill-opacity:1;fill-rule:nonzero;stroke:none" d="m 5580.46,4335.19 434.45,-1169.6 208.28,266.62 324.91,-333.07 122.02,119.05 122.03,119.05 -324.92,333.07 271.67,201.63 -1158.44,463.25" />
      <path id="path150" style="fill:#eac2a7;fill-opacity:1;fill-rule:nonzero;stroke:none" d="m 6890.46,3288.67 2.26,-70.43 -124.31,-45.25 -71.64,54.28 -0.05,81.99 69.17,3.86 2.16,18.03 22.66,14.57 99.75,-57.05" />
      <path id="path152" style="fill:#eac2a7;fill-opacity:1;fill-rule:nonzero;stroke:none" d="m 3223.57,3255.77 -43.66,-55.31 73.1,-110.25 89.88,1.1 48.75,65.92 -53.34,44.2 8.97,15.79 -9.57,25.17 -114.13,13.38" />
      <path id="path154" style="fill:#40495f;fill-opacity:1;fill-rule:nonzero;stroke:none" d="m 3155.39,4399.21 -350.34,-213.63 -193.97,-364.18 50.94,-287.61 524.97,-363.65 98.78,86.37 -350.96,443.65 13.62,280.36 206.96,418.69" />
    </g>
  </g>
</svg>